<mxfile host="app.diagrams.net" modified="2023-05-26T08:23:47.419Z" agent="Mozilla/5.0 (Windows NT 10.0; Win64; x64) AppleWebKit/537.36 (KHTML, like Gecko) Chrome/113.0.0.0 Safari/537.36 Edg/113.0.1774.35" etag="aa0y7TLIKgmPPpR4QbYD" version="21.3.4" type="github">
  <diagram name="第 1 页" id="V1Kh60zSEFwvZyxF-5lB">
    <mxGraphModel dx="1236" dy="541" grid="1" gridSize="10" guides="1" tooltips="1" connect="1" arrows="1" fold="1" page="1" pageScale="1" pageWidth="827" pageHeight="1169" math="0" shadow="0">
      <root>
        <mxCell id="0" />
        <mxCell id="1" parent="0" />
        <mxCell id="ZuISl8PnM1OHtYvL-MK_-49" value="" style="shape=table;startSize=0;container=1;collapsible=0;childLayout=tableLayout;" vertex="1" parent="1">
          <mxGeometry x="10" y="239" width="116" height="116" as="geometry" />
        </mxCell>
        <mxCell id="ZuISl8PnM1OHtYvL-MK_-50" value="" style="shape=tableRow;horizontal=0;startSize=0;swimlaneHead=0;swimlaneBody=0;strokeColor=inherit;top=0;left=0;bottom=0;right=0;collapsible=0;dropTarget=0;fillColor=none;points=[[0,0.5],[1,0.5]];portConstraint=eastwest;" vertex="1" parent="ZuISl8PnM1OHtYvL-MK_-49">
          <mxGeometry width="116" height="30" as="geometry" />
        </mxCell>
        <mxCell id="ZuISl8PnM1OHtYvL-MK_-51" value="" style="shape=partialRectangle;html=1;whiteSpace=wrap;connectable=0;strokeColor=inherit;overflow=hidden;fillColor=none;top=0;left=0;bottom=0;right=0;pointerEvents=1;" vertex="1" parent="ZuISl8PnM1OHtYvL-MK_-50">
          <mxGeometry width="29" height="30" as="geometry">
            <mxRectangle width="29" height="30" as="alternateBounds" />
          </mxGeometry>
        </mxCell>
        <mxCell id="ZuISl8PnM1OHtYvL-MK_-52" value="" style="shape=partialRectangle;html=1;whiteSpace=wrap;connectable=0;strokeColor=inherit;overflow=hidden;fillColor=none;top=0;left=0;bottom=0;right=0;pointerEvents=1;" vertex="1" parent="ZuISl8PnM1OHtYvL-MK_-50">
          <mxGeometry x="29" width="29" height="30" as="geometry">
            <mxRectangle width="29" height="30" as="alternateBounds" />
          </mxGeometry>
        </mxCell>
        <mxCell id="ZuISl8PnM1OHtYvL-MK_-53" value="" style="shape=partialRectangle;html=1;whiteSpace=wrap;connectable=0;strokeColor=inherit;overflow=hidden;fillColor=none;top=0;left=0;bottom=0;right=0;pointerEvents=1;" vertex="1" parent="ZuISl8PnM1OHtYvL-MK_-50">
          <mxGeometry x="58" width="29" height="30" as="geometry">
            <mxRectangle width="29" height="30" as="alternateBounds" />
          </mxGeometry>
        </mxCell>
        <mxCell id="ZuISl8PnM1OHtYvL-MK_-54" value="" style="shape=partialRectangle;html=1;whiteSpace=wrap;connectable=0;strokeColor=inherit;overflow=hidden;fillColor=none;top=0;left=0;bottom=0;right=0;pointerEvents=1;" vertex="1" parent="ZuISl8PnM1OHtYvL-MK_-50">
          <mxGeometry x="87" width="29" height="30" as="geometry">
            <mxRectangle width="29" height="30" as="alternateBounds" />
          </mxGeometry>
        </mxCell>
        <mxCell id="ZuISl8PnM1OHtYvL-MK_-55" value="" style="shape=tableRow;horizontal=0;startSize=0;swimlaneHead=0;swimlaneBody=0;strokeColor=inherit;top=0;left=0;bottom=0;right=0;collapsible=0;dropTarget=0;fillColor=none;points=[[0,0.5],[1,0.5]];portConstraint=eastwest;" vertex="1" parent="ZuISl8PnM1OHtYvL-MK_-49">
          <mxGeometry y="30" width="116" height="28" as="geometry" />
        </mxCell>
        <mxCell id="ZuISl8PnM1OHtYvL-MK_-56" value="" style="shape=partialRectangle;html=1;whiteSpace=wrap;connectable=0;strokeColor=inherit;overflow=hidden;fillColor=none;top=0;left=0;bottom=0;right=0;pointerEvents=1;" vertex="1" parent="ZuISl8PnM1OHtYvL-MK_-55">
          <mxGeometry width="29" height="28" as="geometry">
            <mxRectangle width="29" height="28" as="alternateBounds" />
          </mxGeometry>
        </mxCell>
        <mxCell id="ZuISl8PnM1OHtYvL-MK_-57" value="" style="shape=partialRectangle;html=1;whiteSpace=wrap;connectable=0;strokeColor=inherit;overflow=hidden;fillColor=none;top=0;left=0;bottom=0;right=0;pointerEvents=1;" vertex="1" parent="ZuISl8PnM1OHtYvL-MK_-55">
          <mxGeometry x="29" width="29" height="28" as="geometry">
            <mxRectangle width="29" height="28" as="alternateBounds" />
          </mxGeometry>
        </mxCell>
        <mxCell id="ZuISl8PnM1OHtYvL-MK_-58" value="" style="shape=partialRectangle;html=1;whiteSpace=wrap;connectable=0;strokeColor=inherit;overflow=hidden;fillColor=none;top=0;left=0;bottom=0;right=0;pointerEvents=1;" vertex="1" parent="ZuISl8PnM1OHtYvL-MK_-55">
          <mxGeometry x="58" width="29" height="28" as="geometry">
            <mxRectangle width="29" height="28" as="alternateBounds" />
          </mxGeometry>
        </mxCell>
        <mxCell id="ZuISl8PnM1OHtYvL-MK_-59" value="" style="shape=partialRectangle;html=1;whiteSpace=wrap;connectable=0;strokeColor=inherit;overflow=hidden;fillColor=none;top=0;left=0;bottom=0;right=0;pointerEvents=1;" vertex="1" parent="ZuISl8PnM1OHtYvL-MK_-55">
          <mxGeometry x="87" width="29" height="28" as="geometry">
            <mxRectangle width="29" height="28" as="alternateBounds" />
          </mxGeometry>
        </mxCell>
        <mxCell id="ZuISl8PnM1OHtYvL-MK_-60" value="" style="shape=tableRow;horizontal=0;startSize=0;swimlaneHead=0;swimlaneBody=0;strokeColor=inherit;top=0;left=0;bottom=0;right=0;collapsible=0;dropTarget=0;fillColor=none;points=[[0,0.5],[1,0.5]];portConstraint=eastwest;" vertex="1" parent="ZuISl8PnM1OHtYvL-MK_-49">
          <mxGeometry y="58" width="116" height="29" as="geometry" />
        </mxCell>
        <mxCell id="ZuISl8PnM1OHtYvL-MK_-61" value="" style="shape=partialRectangle;html=1;whiteSpace=wrap;connectable=0;strokeColor=inherit;overflow=hidden;fillColor=none;top=0;left=0;bottom=0;right=0;pointerEvents=1;" vertex="1" parent="ZuISl8PnM1OHtYvL-MK_-60">
          <mxGeometry width="29" height="29" as="geometry">
            <mxRectangle width="29" height="29" as="alternateBounds" />
          </mxGeometry>
        </mxCell>
        <mxCell id="ZuISl8PnM1OHtYvL-MK_-62" value="" style="shape=partialRectangle;html=1;whiteSpace=wrap;connectable=0;strokeColor=inherit;overflow=hidden;fillColor=none;top=0;left=0;bottom=0;right=0;pointerEvents=1;" vertex="1" parent="ZuISl8PnM1OHtYvL-MK_-60">
          <mxGeometry x="29" width="29" height="29" as="geometry">
            <mxRectangle width="29" height="29" as="alternateBounds" />
          </mxGeometry>
        </mxCell>
        <mxCell id="ZuISl8PnM1OHtYvL-MK_-63" value="" style="shape=partialRectangle;html=1;whiteSpace=wrap;connectable=0;strokeColor=inherit;overflow=hidden;fillColor=none;top=0;left=0;bottom=0;right=0;pointerEvents=1;" vertex="1" parent="ZuISl8PnM1OHtYvL-MK_-60">
          <mxGeometry x="58" width="29" height="29" as="geometry">
            <mxRectangle width="29" height="29" as="alternateBounds" />
          </mxGeometry>
        </mxCell>
        <mxCell id="ZuISl8PnM1OHtYvL-MK_-64" value="" style="shape=partialRectangle;html=1;whiteSpace=wrap;connectable=0;strokeColor=inherit;overflow=hidden;fillColor=none;top=0;left=0;bottom=0;right=0;pointerEvents=1;" vertex="1" parent="ZuISl8PnM1OHtYvL-MK_-60">
          <mxGeometry x="87" width="29" height="29" as="geometry">
            <mxRectangle width="29" height="29" as="alternateBounds" />
          </mxGeometry>
        </mxCell>
        <mxCell id="ZuISl8PnM1OHtYvL-MK_-65" value="" style="shape=tableRow;horizontal=0;startSize=0;swimlaneHead=0;swimlaneBody=0;strokeColor=inherit;top=0;left=0;bottom=0;right=0;collapsible=0;dropTarget=0;fillColor=none;points=[[0,0.5],[1,0.5]];portConstraint=eastwest;" vertex="1" parent="ZuISl8PnM1OHtYvL-MK_-49">
          <mxGeometry y="87" width="116" height="29" as="geometry" />
        </mxCell>
        <mxCell id="ZuISl8PnM1OHtYvL-MK_-66" value="" style="shape=partialRectangle;html=1;whiteSpace=wrap;connectable=0;strokeColor=inherit;overflow=hidden;fillColor=none;top=0;left=0;bottom=0;right=0;pointerEvents=1;" vertex="1" parent="ZuISl8PnM1OHtYvL-MK_-65">
          <mxGeometry width="29" height="29" as="geometry">
            <mxRectangle width="29" height="29" as="alternateBounds" />
          </mxGeometry>
        </mxCell>
        <mxCell id="ZuISl8PnM1OHtYvL-MK_-67" value="" style="shape=partialRectangle;html=1;whiteSpace=wrap;connectable=0;strokeColor=inherit;overflow=hidden;fillColor=none;top=0;left=0;bottom=0;right=0;pointerEvents=1;" vertex="1" parent="ZuISl8PnM1OHtYvL-MK_-65">
          <mxGeometry x="29" width="29" height="29" as="geometry">
            <mxRectangle width="29" height="29" as="alternateBounds" />
          </mxGeometry>
        </mxCell>
        <mxCell id="ZuISl8PnM1OHtYvL-MK_-68" value="" style="shape=partialRectangle;html=1;whiteSpace=wrap;connectable=0;strokeColor=inherit;overflow=hidden;fillColor=none;top=0;left=0;bottom=0;right=0;pointerEvents=1;" vertex="1" parent="ZuISl8PnM1OHtYvL-MK_-65">
          <mxGeometry x="58" width="29" height="29" as="geometry">
            <mxRectangle width="29" height="29" as="alternateBounds" />
          </mxGeometry>
        </mxCell>
        <mxCell id="ZuISl8PnM1OHtYvL-MK_-69" value="" style="shape=partialRectangle;html=1;whiteSpace=wrap;connectable=0;strokeColor=inherit;overflow=hidden;fillColor=none;top=0;left=0;bottom=0;right=0;pointerEvents=1;" vertex="1" parent="ZuISl8PnM1OHtYvL-MK_-65">
          <mxGeometry x="87" width="29" height="29" as="geometry">
            <mxRectangle width="29" height="29" as="alternateBounds" />
          </mxGeometry>
        </mxCell>
        <mxCell id="ZuISl8PnM1OHtYvL-MK_-70" value="&lt;font style=&quot;font-size: 18px;&quot; face=&quot;Times New Roman&quot;&gt;pool3&lt;/font&gt;" style="text;strokeColor=none;align=center;fillColor=none;html=1;verticalAlign=middle;whiteSpace=wrap;rounded=0;" vertex="1" parent="1">
          <mxGeometry x="36" y="209" width="60" height="30" as="geometry" />
        </mxCell>
        <mxCell id="ZuISl8PnM1OHtYvL-MK_-71" value="" style="shape=table;startSize=0;container=1;collapsible=0;childLayout=tableLayout;" vertex="1" parent="1">
          <mxGeometry x="155" y="239" width="116" height="116" as="geometry" />
        </mxCell>
        <mxCell id="ZuISl8PnM1OHtYvL-MK_-72" value="" style="shape=tableRow;horizontal=0;startSize=0;swimlaneHead=0;swimlaneBody=0;strokeColor=inherit;top=0;left=0;bottom=0;right=0;collapsible=0;dropTarget=0;fillColor=none;points=[[0,0.5],[1,0.5]];portConstraint=eastwest;" vertex="1" parent="ZuISl8PnM1OHtYvL-MK_-71">
          <mxGeometry width="116" height="58" as="geometry" />
        </mxCell>
        <mxCell id="ZuISl8PnM1OHtYvL-MK_-73" value="" style="shape=partialRectangle;html=1;whiteSpace=wrap;connectable=0;strokeColor=inherit;overflow=hidden;fillColor=none;top=0;left=0;bottom=0;right=0;pointerEvents=1;" vertex="1" parent="ZuISl8PnM1OHtYvL-MK_-72">
          <mxGeometry width="58" height="58" as="geometry">
            <mxRectangle width="58" height="58" as="alternateBounds" />
          </mxGeometry>
        </mxCell>
        <mxCell id="ZuISl8PnM1OHtYvL-MK_-74" value="" style="shape=partialRectangle;html=1;whiteSpace=wrap;connectable=0;strokeColor=inherit;overflow=hidden;fillColor=none;top=0;left=0;bottom=0;right=0;pointerEvents=1;" vertex="1" parent="ZuISl8PnM1OHtYvL-MK_-72">
          <mxGeometry x="58" width="58" height="58" as="geometry">
            <mxRectangle width="58" height="58" as="alternateBounds" />
          </mxGeometry>
        </mxCell>
        <mxCell id="ZuISl8PnM1OHtYvL-MK_-75" value="" style="shape=tableRow;horizontal=0;startSize=0;swimlaneHead=0;swimlaneBody=0;strokeColor=inherit;top=0;left=0;bottom=0;right=0;collapsible=0;dropTarget=0;fillColor=none;points=[[0,0.5],[1,0.5]];portConstraint=eastwest;" vertex="1" parent="ZuISl8PnM1OHtYvL-MK_-71">
          <mxGeometry y="58" width="116" height="58" as="geometry" />
        </mxCell>
        <mxCell id="ZuISl8PnM1OHtYvL-MK_-76" value="" style="shape=partialRectangle;html=1;whiteSpace=wrap;connectable=0;strokeColor=inherit;overflow=hidden;fillColor=none;top=0;left=0;bottom=0;right=0;pointerEvents=1;" vertex="1" parent="ZuISl8PnM1OHtYvL-MK_-75">
          <mxGeometry width="58" height="58" as="geometry">
            <mxRectangle width="58" height="58" as="alternateBounds" />
          </mxGeometry>
        </mxCell>
        <mxCell id="ZuISl8PnM1OHtYvL-MK_-77" value="" style="shape=partialRectangle;html=1;whiteSpace=wrap;connectable=0;strokeColor=inherit;overflow=hidden;fillColor=none;top=0;left=0;bottom=0;right=0;pointerEvents=1;" vertex="1" parent="ZuISl8PnM1OHtYvL-MK_-75">
          <mxGeometry x="58" width="58" height="58" as="geometry">
            <mxRectangle width="58" height="58" as="alternateBounds" />
          </mxGeometry>
        </mxCell>
        <mxCell id="ZuISl8PnM1OHtYvL-MK_-78" value="&lt;font style=&quot;font-size: 18px;&quot; face=&quot;Times New Roman&quot;&gt;pool4&lt;/font&gt;" style="text;strokeColor=none;align=center;fillColor=none;html=1;verticalAlign=middle;whiteSpace=wrap;rounded=0;" vertex="1" parent="1">
          <mxGeometry x="184" y="209" width="60" height="30" as="geometry" />
        </mxCell>
        <mxCell id="ZuISl8PnM1OHtYvL-MK_-79" value="" style="shape=table;startSize=0;container=1;collapsible=0;childLayout=tableLayout;" vertex="1" parent="1">
          <mxGeometry x="298" y="239" width="116" height="116" as="geometry" />
        </mxCell>
        <mxCell id="ZuISl8PnM1OHtYvL-MK_-80" value="" style="shape=tableRow;horizontal=0;startSize=0;swimlaneHead=0;swimlaneBody=0;strokeColor=inherit;top=0;left=0;bottom=0;right=0;collapsible=0;dropTarget=0;fillColor=none;points=[[0,0.5],[1,0.5]];portConstraint=eastwest;" vertex="1" parent="ZuISl8PnM1OHtYvL-MK_-79">
          <mxGeometry width="116" height="116" as="geometry" />
        </mxCell>
        <mxCell id="ZuISl8PnM1OHtYvL-MK_-81" value="" style="shape=partialRectangle;html=1;whiteSpace=wrap;connectable=0;strokeColor=inherit;overflow=hidden;fillColor=none;top=0;left=0;bottom=0;right=0;pointerEvents=1;" vertex="1" parent="ZuISl8PnM1OHtYvL-MK_-80">
          <mxGeometry width="116" height="116" as="geometry">
            <mxRectangle width="116" height="116" as="alternateBounds" />
          </mxGeometry>
        </mxCell>
        <mxCell id="ZuISl8PnM1OHtYvL-MK_-82" value="&lt;font style=&quot;font-size: 18px;&quot; face=&quot;Times New Roman&quot;&gt;pool5&lt;/font&gt;" style="text;strokeColor=none;align=center;fillColor=none;html=1;verticalAlign=middle;whiteSpace=wrap;rounded=0;" vertex="1" parent="1">
          <mxGeometry x="326" y="209" width="60" height="30" as="geometry" />
        </mxCell>
        <mxCell id="wFPXFdsAvhuZ9eLlfo5F-1" value="" style="shape=table;startSize=0;container=1;collapsible=0;childLayout=tableLayout;" vertex="1" parent="1">
          <mxGeometry x="458" y="60" width="116" height="116" as="geometry" />
        </mxCell>
        <mxCell id="wFPXFdsAvhuZ9eLlfo5F-2" value="" style="shape=tableRow;horizontal=0;startSize=0;swimlaneHead=0;swimlaneBody=0;strokeColor=inherit;top=0;left=0;bottom=0;right=0;collapsible=0;dropTarget=0;fillColor=none;points=[[0,0.5],[1,0.5]];portConstraint=eastwest;" vertex="1" parent="wFPXFdsAvhuZ9eLlfo5F-1">
          <mxGeometry width="116" height="58" as="geometry" />
        </mxCell>
        <mxCell id="wFPXFdsAvhuZ9eLlfo5F-3" value="" style="shape=partialRectangle;html=1;whiteSpace=wrap;connectable=0;strokeColor=inherit;overflow=hidden;fillColor=none;top=0;left=0;bottom=0;right=0;pointerEvents=1;" vertex="1" parent="wFPXFdsAvhuZ9eLlfo5F-2">
          <mxGeometry width="58" height="58" as="geometry">
            <mxRectangle width="58" height="58" as="alternateBounds" />
          </mxGeometry>
        </mxCell>
        <mxCell id="wFPXFdsAvhuZ9eLlfo5F-4" value="" style="shape=partialRectangle;html=1;whiteSpace=wrap;connectable=0;strokeColor=inherit;overflow=hidden;fillColor=none;top=0;left=0;bottom=0;right=0;pointerEvents=1;" vertex="1" parent="wFPXFdsAvhuZ9eLlfo5F-2">
          <mxGeometry x="58" width="58" height="58" as="geometry">
            <mxRectangle width="58" height="58" as="alternateBounds" />
          </mxGeometry>
        </mxCell>
        <mxCell id="wFPXFdsAvhuZ9eLlfo5F-5" value="" style="shape=tableRow;horizontal=0;startSize=0;swimlaneHead=0;swimlaneBody=0;strokeColor=inherit;top=0;left=0;bottom=0;right=0;collapsible=0;dropTarget=0;fillColor=none;points=[[0,0.5],[1,0.5]];portConstraint=eastwest;" vertex="1" parent="wFPXFdsAvhuZ9eLlfo5F-1">
          <mxGeometry y="58" width="116" height="58" as="geometry" />
        </mxCell>
        <mxCell id="wFPXFdsAvhuZ9eLlfo5F-6" value="" style="shape=partialRectangle;html=1;whiteSpace=wrap;connectable=0;strokeColor=inherit;overflow=hidden;fillColor=none;top=0;left=0;bottom=0;right=0;pointerEvents=1;" vertex="1" parent="wFPXFdsAvhuZ9eLlfo5F-5">
          <mxGeometry width="58" height="58" as="geometry">
            <mxRectangle width="58" height="58" as="alternateBounds" />
          </mxGeometry>
        </mxCell>
        <mxCell id="wFPXFdsAvhuZ9eLlfo5F-7" value="" style="shape=partialRectangle;html=1;whiteSpace=wrap;connectable=0;strokeColor=inherit;overflow=hidden;fillColor=none;top=0;left=0;bottom=0;right=0;pointerEvents=1;" vertex="1" parent="wFPXFdsAvhuZ9eLlfo5F-5">
          <mxGeometry x="58" width="58" height="58" as="geometry">
            <mxRectangle width="58" height="58" as="alternateBounds" />
          </mxGeometry>
        </mxCell>
        <mxCell id="wFPXFdsAvhuZ9eLlfo5F-8" value="&lt;font style=&quot;font-size: 18px;&quot;&gt;2x&amp;nbsp; upsampled&lt;/font&gt;" style="text;html=1;align=center;verticalAlign=middle;resizable=0;points=[];autosize=1;strokeColor=none;fillColor=none;" vertex="1" parent="1">
          <mxGeometry x="446" y="20" width="140" height="40" as="geometry" />
        </mxCell>
        <mxCell id="wFPXFdsAvhuZ9eLlfo5F-16" value="&lt;font style=&quot;font-size: 18px;&quot;&gt;2x&amp;nbsp; upsampled&lt;/font&gt;" style="text;html=1;align=center;verticalAlign=middle;resizable=0;points=[];autosize=1;strokeColor=none;fillColor=none;" vertex="1" parent="1">
          <mxGeometry x="590" y="20" width="140" height="40" as="geometry" />
        </mxCell>
        <mxCell id="wFPXFdsAvhuZ9eLlfo5F-17" value="" style="shape=table;startSize=0;container=1;collapsible=0;childLayout=tableLayout;" vertex="1" parent="1">
          <mxGeometry x="602" y="60" width="116" height="116" as="geometry" />
        </mxCell>
        <mxCell id="wFPXFdsAvhuZ9eLlfo5F-18" value="" style="shape=tableRow;horizontal=0;startSize=0;swimlaneHead=0;swimlaneBody=0;strokeColor=inherit;top=0;left=0;bottom=0;right=0;collapsible=0;dropTarget=0;fillColor=none;points=[[0,0.5],[1,0.5]];portConstraint=eastwest;" vertex="1" parent="wFPXFdsAvhuZ9eLlfo5F-17">
          <mxGeometry width="116" height="30" as="geometry" />
        </mxCell>
        <mxCell id="wFPXFdsAvhuZ9eLlfo5F-19" value="" style="shape=partialRectangle;html=1;whiteSpace=wrap;connectable=0;strokeColor=inherit;overflow=hidden;fillColor=none;top=0;left=0;bottom=0;right=0;pointerEvents=1;" vertex="1" parent="wFPXFdsAvhuZ9eLlfo5F-18">
          <mxGeometry width="29" height="30" as="geometry">
            <mxRectangle width="29" height="30" as="alternateBounds" />
          </mxGeometry>
        </mxCell>
        <mxCell id="wFPXFdsAvhuZ9eLlfo5F-20" value="" style="shape=partialRectangle;html=1;whiteSpace=wrap;connectable=0;strokeColor=inherit;overflow=hidden;fillColor=none;top=0;left=0;bottom=0;right=0;pointerEvents=1;" vertex="1" parent="wFPXFdsAvhuZ9eLlfo5F-18">
          <mxGeometry x="29" width="29" height="30" as="geometry">
            <mxRectangle width="29" height="30" as="alternateBounds" />
          </mxGeometry>
        </mxCell>
        <mxCell id="wFPXFdsAvhuZ9eLlfo5F-21" value="" style="shape=partialRectangle;html=1;whiteSpace=wrap;connectable=0;strokeColor=inherit;overflow=hidden;fillColor=none;top=0;left=0;bottom=0;right=0;pointerEvents=1;" vertex="1" parent="wFPXFdsAvhuZ9eLlfo5F-18">
          <mxGeometry x="58" width="29" height="30" as="geometry">
            <mxRectangle width="29" height="30" as="alternateBounds" />
          </mxGeometry>
        </mxCell>
        <mxCell id="wFPXFdsAvhuZ9eLlfo5F-22" value="" style="shape=partialRectangle;html=1;whiteSpace=wrap;connectable=0;strokeColor=inherit;overflow=hidden;fillColor=none;top=0;left=0;bottom=0;right=0;pointerEvents=1;" vertex="1" parent="wFPXFdsAvhuZ9eLlfo5F-18">
          <mxGeometry x="87" width="29" height="30" as="geometry">
            <mxRectangle width="29" height="30" as="alternateBounds" />
          </mxGeometry>
        </mxCell>
        <mxCell id="wFPXFdsAvhuZ9eLlfo5F-23" value="" style="shape=tableRow;horizontal=0;startSize=0;swimlaneHead=0;swimlaneBody=0;strokeColor=inherit;top=0;left=0;bottom=0;right=0;collapsible=0;dropTarget=0;fillColor=none;points=[[0,0.5],[1,0.5]];portConstraint=eastwest;" vertex="1" parent="wFPXFdsAvhuZ9eLlfo5F-17">
          <mxGeometry y="30" width="116" height="28" as="geometry" />
        </mxCell>
        <mxCell id="wFPXFdsAvhuZ9eLlfo5F-24" value="" style="shape=partialRectangle;html=1;whiteSpace=wrap;connectable=0;strokeColor=inherit;overflow=hidden;fillColor=none;top=0;left=0;bottom=0;right=0;pointerEvents=1;" vertex="1" parent="wFPXFdsAvhuZ9eLlfo5F-23">
          <mxGeometry width="29" height="28" as="geometry">
            <mxRectangle width="29" height="28" as="alternateBounds" />
          </mxGeometry>
        </mxCell>
        <mxCell id="wFPXFdsAvhuZ9eLlfo5F-25" value="" style="shape=partialRectangle;html=1;whiteSpace=wrap;connectable=0;strokeColor=inherit;overflow=hidden;fillColor=none;top=0;left=0;bottom=0;right=0;pointerEvents=1;" vertex="1" parent="wFPXFdsAvhuZ9eLlfo5F-23">
          <mxGeometry x="29" width="29" height="28" as="geometry">
            <mxRectangle width="29" height="28" as="alternateBounds" />
          </mxGeometry>
        </mxCell>
        <mxCell id="wFPXFdsAvhuZ9eLlfo5F-26" value="" style="shape=partialRectangle;html=1;whiteSpace=wrap;connectable=0;strokeColor=inherit;overflow=hidden;fillColor=none;top=0;left=0;bottom=0;right=0;pointerEvents=1;" vertex="1" parent="wFPXFdsAvhuZ9eLlfo5F-23">
          <mxGeometry x="58" width="29" height="28" as="geometry">
            <mxRectangle width="29" height="28" as="alternateBounds" />
          </mxGeometry>
        </mxCell>
        <mxCell id="wFPXFdsAvhuZ9eLlfo5F-27" value="" style="shape=partialRectangle;html=1;whiteSpace=wrap;connectable=0;strokeColor=inherit;overflow=hidden;fillColor=none;top=0;left=0;bottom=0;right=0;pointerEvents=1;" vertex="1" parent="wFPXFdsAvhuZ9eLlfo5F-23">
          <mxGeometry x="87" width="29" height="28" as="geometry">
            <mxRectangle width="29" height="28" as="alternateBounds" />
          </mxGeometry>
        </mxCell>
        <mxCell id="wFPXFdsAvhuZ9eLlfo5F-28" value="" style="shape=tableRow;horizontal=0;startSize=0;swimlaneHead=0;swimlaneBody=0;strokeColor=inherit;top=0;left=0;bottom=0;right=0;collapsible=0;dropTarget=0;fillColor=none;points=[[0,0.5],[1,0.5]];portConstraint=eastwest;" vertex="1" parent="wFPXFdsAvhuZ9eLlfo5F-17">
          <mxGeometry y="58" width="116" height="29" as="geometry" />
        </mxCell>
        <mxCell id="wFPXFdsAvhuZ9eLlfo5F-29" value="" style="shape=partialRectangle;html=1;whiteSpace=wrap;connectable=0;strokeColor=inherit;overflow=hidden;fillColor=none;top=0;left=0;bottom=0;right=0;pointerEvents=1;" vertex="1" parent="wFPXFdsAvhuZ9eLlfo5F-28">
          <mxGeometry width="29" height="29" as="geometry">
            <mxRectangle width="29" height="29" as="alternateBounds" />
          </mxGeometry>
        </mxCell>
        <mxCell id="wFPXFdsAvhuZ9eLlfo5F-30" value="" style="shape=partialRectangle;html=1;whiteSpace=wrap;connectable=0;strokeColor=inherit;overflow=hidden;fillColor=none;top=0;left=0;bottom=0;right=0;pointerEvents=1;" vertex="1" parent="wFPXFdsAvhuZ9eLlfo5F-28">
          <mxGeometry x="29" width="29" height="29" as="geometry">
            <mxRectangle width="29" height="29" as="alternateBounds" />
          </mxGeometry>
        </mxCell>
        <mxCell id="wFPXFdsAvhuZ9eLlfo5F-31" value="" style="shape=partialRectangle;html=1;whiteSpace=wrap;connectable=0;strokeColor=inherit;overflow=hidden;fillColor=none;top=0;left=0;bottom=0;right=0;pointerEvents=1;" vertex="1" parent="wFPXFdsAvhuZ9eLlfo5F-28">
          <mxGeometry x="58" width="29" height="29" as="geometry">
            <mxRectangle width="29" height="29" as="alternateBounds" />
          </mxGeometry>
        </mxCell>
        <mxCell id="wFPXFdsAvhuZ9eLlfo5F-32" value="" style="shape=partialRectangle;html=1;whiteSpace=wrap;connectable=0;strokeColor=inherit;overflow=hidden;fillColor=none;top=0;left=0;bottom=0;right=0;pointerEvents=1;" vertex="1" parent="wFPXFdsAvhuZ9eLlfo5F-28">
          <mxGeometry x="87" width="29" height="29" as="geometry">
            <mxRectangle width="29" height="29" as="alternateBounds" />
          </mxGeometry>
        </mxCell>
        <mxCell id="wFPXFdsAvhuZ9eLlfo5F-33" value="" style="shape=tableRow;horizontal=0;startSize=0;swimlaneHead=0;swimlaneBody=0;strokeColor=inherit;top=0;left=0;bottom=0;right=0;collapsible=0;dropTarget=0;fillColor=none;points=[[0,0.5],[1,0.5]];portConstraint=eastwest;" vertex="1" parent="wFPXFdsAvhuZ9eLlfo5F-17">
          <mxGeometry y="87" width="116" height="29" as="geometry" />
        </mxCell>
        <mxCell id="wFPXFdsAvhuZ9eLlfo5F-34" value="" style="shape=partialRectangle;html=1;whiteSpace=wrap;connectable=0;strokeColor=inherit;overflow=hidden;fillColor=none;top=0;left=0;bottom=0;right=0;pointerEvents=1;" vertex="1" parent="wFPXFdsAvhuZ9eLlfo5F-33">
          <mxGeometry width="29" height="29" as="geometry">
            <mxRectangle width="29" height="29" as="alternateBounds" />
          </mxGeometry>
        </mxCell>
        <mxCell id="wFPXFdsAvhuZ9eLlfo5F-35" value="" style="shape=partialRectangle;html=1;whiteSpace=wrap;connectable=0;strokeColor=inherit;overflow=hidden;fillColor=none;top=0;left=0;bottom=0;right=0;pointerEvents=1;" vertex="1" parent="wFPXFdsAvhuZ9eLlfo5F-33">
          <mxGeometry x="29" width="29" height="29" as="geometry">
            <mxRectangle width="29" height="29" as="alternateBounds" />
          </mxGeometry>
        </mxCell>
        <mxCell id="wFPXFdsAvhuZ9eLlfo5F-36" value="" style="shape=partialRectangle;html=1;whiteSpace=wrap;connectable=0;strokeColor=inherit;overflow=hidden;fillColor=none;top=0;left=0;bottom=0;right=0;pointerEvents=1;" vertex="1" parent="wFPXFdsAvhuZ9eLlfo5F-33">
          <mxGeometry x="58" width="29" height="29" as="geometry">
            <mxRectangle width="29" height="29" as="alternateBounds" />
          </mxGeometry>
        </mxCell>
        <mxCell id="wFPXFdsAvhuZ9eLlfo5F-37" value="" style="shape=partialRectangle;html=1;whiteSpace=wrap;connectable=0;strokeColor=inherit;overflow=hidden;fillColor=none;top=0;left=0;bottom=0;right=0;pointerEvents=1;" vertex="1" parent="wFPXFdsAvhuZ9eLlfo5F-33">
          <mxGeometry x="87" width="29" height="29" as="geometry">
            <mxRectangle width="29" height="29" as="alternateBounds" />
          </mxGeometry>
        </mxCell>
      </root>
    </mxGraphModel>
  </diagram>
</mxfile>
